<svg xmlns="http://www.w3.org/2000/svg" xmlns:xlink="http://www.w3.org/1999/xlink" width="380" zoomAndPan="magnify" viewBox="0 0 285 149.999998" height="200" preserveAspectRatio="xMidYMid meet" version="1.0"><defs><g/><clipPath id="2cbbb38e12"><rect x="0" width="112" y="0" height="134"/></clipPath><clipPath id="8febc54f14"><path d="M 0.121094 69 L 21 69 L 21 96 L 0.121094 96 Z M 0.121094 69 " clip-rule="nonzero"/></clipPath><clipPath id="3f0a83bf44"><rect x="0" width="139" y="0" height="108"/></clipPath></defs><g transform="matrix(1, 0, 0, 1, 6, 16)"><g clip-path="url(#8DBDD012)"><g fill="#8DBDD0" fill-opacity="1"><g transform="translate(1.179043, 99.264672)"><g><path d="M 104.421875 -48.09375 C 104.421875 -42.59375 103.597656 -37.367188 101.953125 -32.421875 C 100.304688 -27.484375 97.925781 -22.953125 94.8125 -18.828125 C 91.695312 -14.703125 87.894531 -11.035156 83.40625 -7.828125 C 78.914062 -4.617188 73.785156 -2.007812 68.015625 0 L 68.015625 13.1875 L 44.375 13.1875 L 44.375 -40.390625 L 67.046875 -40.390625 L 67.046875 -33.53125 C 69.066406 -34.988281 70.71875 -36.953125 72 -39.421875 C 73.28125 -41.898438 73.921875 -44.46875 73.921875 -47.125 C 73.921875 -50.0625 73.414062 -52.765625 72.40625 -55.234375 C 71.40625 -57.710938 70.054688 -59.84375 68.359375 -61.625 C 66.660156 -63.414062 64.644531 -64.8125 62.3125 -65.8125 C 59.976562 -66.820312 57.4375 -67.328125 54.6875 -67.328125 C 51.9375 -67.328125 49.394531 -66.820312 47.0625 -65.8125 C 44.726562 -64.8125 42.710938 -63.4375 41.015625 -61.6875 C 39.316406 -59.945312 37.960938 -57.910156 36.953125 -55.578125 C 35.953125 -53.242188 35.453125 -50.75 35.453125 -48.09375 C 35.453125 -45.613281 35.882812 -43.253906 36.75 -41.015625 C 37.625 -38.773438 38.703125 -37.007812 39.984375 -35.71875 L 39.984375 -0.28125 C 34.765625 -1.832031 30 -4.234375 25.6875 -7.484375 C 21.382812 -10.734375 17.695312 -14.507812 14.625 -18.8125 C 11.5625 -23.125 9.179688 -27.796875 7.484375 -32.828125 C 5.796875 -37.867188 4.953125 -42.957031 4.953125 -48.09375 C 4.953125 -54.78125 6.253906 -61.144531 8.859375 -67.1875 C 11.472656 -73.238281 15.023438 -78.53125 19.515625 -83.0625 C 24.003906 -87.59375 29.269531 -91.1875 35.3125 -93.84375 C 41.351562 -96.5 47.8125 -97.828125 54.6875 -97.828125 C 61.5625 -97.828125 68.019531 -96.5 74.0625 -93.84375 C 80.101562 -91.1875 85.367188 -87.59375 89.859375 -83.0625 C 94.347656 -78.53125 97.894531 -73.238281 100.5 -67.1875 C 103.113281 -61.144531 104.421875 -54.78125 104.421875 -48.09375 Z M 104.421875 -48.09375 "/></g></g></g></g></g><path stroke-linecap="butt" transform="matrix(0, -0.75, 0.75, 0, 122.910962, 117.289486)" fill="none" stroke-linejoin="miter" d="M 0.000564078 0.998925 L 124.922446 0.998925 " stroke="#8DBDD0" stroke-width="2" stroke-opacity="1" stroke-miterlimit="4"/><g transform="matrix(1, 0, 0, 1, 135, 22)"><g clip-path="url(#8DBDD044)"><g fill="#8DBDD0" fill-opacity="1"><g transform="translate(0.229975, 26.981075)"><g><path d="M 12.300781 -25.945312 C 5.964844 -25.945312 1.675781 -20.613281 1.675781 -12.597656 C 1.675781 -5.179688 5.515625 0.148438 12.339844 0.371094 C 12.449219 4.210938 14.6875 6.074219 18.488281 6.074219 C 19.421875 6.074219 20.316406 5.890625 21.246094 5.589844 L 21.246094 3.058594 C 20.203125 3.242188 19.199219 3.316406 18.265625 3.316406 C 16.179688 3.316406 14.949219 2.535156 14.949219 0.335938 L 14.949219 -0.0390625 C 20.054688 -1.230469 22.925781 -6.671875 22.925781 -12.785156 C 22.925781 -20.242188 19.046875 -25.945312 12.300781 -25.945312 Z M 5.105469 -12.523438 C 5.105469 -18.191406 7.121094 -23.296875 12.339844 -23.296875 C 16.996094 -23.296875 19.496094 -18.863281 19.496094 -12.710938 C 19.496094 -6.300781 16.921875 -2.273438 12.078125 -2.273438 C 7.457031 -2.273438 5.105469 -6.484375 5.105469 -12.523438 Z M 5.105469 -12.523438 "/></g></g></g><g fill="#8DBDD0" fill-opacity="1"><g transform="translate(24.82878, 26.981075)"><g><path d="M 2.570312 -18.9375 L 2.570312 -7.121094 C 2.570312 -1.714844 5.40625 0.371094 8.910156 0.371094 C 11.40625 0.371094 13.679688 -1.230469 14.722656 -3.765625 L 14.796875 -3.765625 L 14.796875 0 L 17.445312 0 L 17.445312 -18.9375 L 14.539062 -18.9375 L 14.539062 -8.683594 C 14.539062 -4.660156 12.039062 -2.160156 9.207031 -2.160156 C 7.679688 -2.160156 5.480469 -3.132812 5.480469 -6.933594 L 5.480469 -18.9375 Z M 2.570312 -18.9375 "/></g></g></g><g fill="#8DBDD0" fill-opacity="1"><g transform="translate(44.955076, 26.981075)"><g><path d="M 10.101562 -19.421875 C 5.589844 -19.421875 2.3125 -17.484375 1.9375 -14.238281 L 4.660156 -13.792969 C 5.070312 -15.953125 6.820312 -17.148438 9.839844 -17.148438 C 13.121094 -17.148438 14.648438 -15.917969 14.648438 -12.675781 L 14.648438 -11.742188 L 12.039062 -11.742188 C 7.417969 -11.742188 4.921875 -10.996094 3.464844 -9.691406 C 2.011719 -8.386719 1.417969 -6.894531 1.417969 -5.367188 C 1.417969 -1.863281 4.136719 0.371094 8.015625 0.371094 C 10.996094 0.371094 13.269531 -0.78125 14.648438 -3.542969 L 14.984375 0 L 17.894531 0 C 17.484375 -1.304688 17.484375 -2.871094 17.484375 -3.726562 L 17.484375 -11.816406 C 17.484375 -14.5 17.148438 -16.101562 16.027344 -17.40625 C 14.984375 -18.675781 13.382812 -19.421875 10.101562 -19.421875 Z M 4.546875 -5.21875 C 4.546875 -8.050781 7.121094 -9.542969 11.929688 -9.542969 L 14.648438 -9.542969 L 14.648438 -8.3125 C 14.648438 -4.882812 12.1875 -1.902344 8.648438 -1.902344 C 6.226562 -1.902344 4.546875 -3.132812 4.546875 -5.21875 Z M 4.546875 -5.21875 "/></g></g></g><g fill="#8DBDD0" fill-opacity="1"><g transform="translate(65.081372, 26.981075)"><g><path d="M 11.292969 -19.421875 C 8.761719 -19.421875 6.597656 -17.96875 5.40625 -15.433594 L 5.332031 -15.433594 L 5.332031 -18.9375 L 2.570312 -18.9375 L 2.570312 0 L 5.480469 0 L 5.480469 -10.324219 C 5.480469 -14.574219 8.125 -16.921875 10.882812 -16.921875 C 12.449219 -16.921875 14.648438 -16.027344 14.648438 -12.972656 L 14.648438 0 L 17.558594 0 L 17.558594 -12.523438 C 17.558594 -17.148438 14.761719 -19.421875 11.292969 -19.421875 Z M 11.292969 -19.421875 "/></g></g></g><g fill="#8DBDD0" fill-opacity="1"><g transform="translate(85.207669, 26.981075)"><g><path d="M 6.375 -24.082031 L 3.464844 -23.78125 L 3.464844 -19.085938 L 0.113281 -19.085938 L 0.113281 -16.773438 L 3.464844 -16.773438 L 3.464844 -5.628906 C 3.464844 -1.601562 5.144531 0.371094 8.761719 0.371094 C 9.058594 0.371094 10.027344 0.296875 11.628906 0.148438 L 11.628906 -2.160156 C 10.921875 -2.125 10.140625 -1.976562 9.320312 -1.976562 C 7.230469 -1.976562 6.375 -2.945312 6.375 -5.21875 L 6.375 -16.773438 L 10.585938 -16.773438 L 10.585938 -19.085938 L 6.375 -19.085938 Z M 6.375 -24.082031 "/></g></g></g><g fill="#8DBDD0" fill-opacity="1"><g transform="translate(0.229975, 61.113978)"><g><path d="M 2.386719 -25.570312 L 2.386719 0 L 5.589844 0 L 5.589844 -10.398438 L 11.742188 -10.398438 C 17.183594 -10.398438 19.71875 -14.238281 19.71875 -17.894531 C 19.71875 -20.910156 18.042969 -25.570312 11.480469 -25.570312 Z M 5.589844 -13.046875 L 5.589844 -22.886719 L 11.480469 -22.886719 C 14.910156 -22.886719 16.476562 -20.539062 16.476562 -17.894531 C 16.476562 -15.730469 15.171875 -13.046875 11.40625 -13.046875 Z M 5.589844 -13.046875 "/></g></g></g><g fill="#8DBDD0" fill-opacity="1"><g transform="translate(20.169779, 61.113978)"><g><path d="M 10.25 -19.421875 C 5.03125 -19.421875 1.566406 -15.394531 1.566406 -9.617188 C 1.566406 -3.914062 4.621094 0.371094 9.765625 0.371094 C 15.207031 0.371094 18.5625 -3.953125 18.5625 -9.578125 C 18.5625 -15.132812 15.394531 -19.421875 10.25 -19.421875 Z M 4.808594 -9.617188 C 4.808594 -14.910156 7.230469 -17.035156 9.988281 -17.035156 C 12.710938 -17.035156 15.320312 -15.171875 15.320312 -9.617188 C 15.320312 -4.25 12.898438 -2.050781 10.027344 -2.050781 C 7.121094 -2.050781 4.808594 -4.25 4.808594 -9.617188 Z M 4.808594 -9.617188 "/></g></g></g><g fill="#8DBDD0" fill-opacity="1"><g transform="translate(40.296075, 61.113978)"><g><path d="M 10.882812 -19.457031 C 8.386719 -19.457031 6.523438 -17.816406 5.367188 -14.5 L 5.292969 -14.5 L 5.292969 -18.9375 L 2.683594 -18.9375 L 2.683594 0 L 5.589844 0 L 5.589844 -9.804688 C 5.589844 -13.605469 7.941406 -16.589844 11.371094 -16.589844 L 12.003906 -16.589844 L 12.003906 -19.382812 C 11.59375 -19.421875 11.21875 -19.457031 10.882812 -19.457031 Z M 10.882812 -19.457031 "/></g></g></g><g fill="#8DBDD0" fill-opacity="1"><g transform="translate(54.086587, 61.113978)"><g><path d="M 6.375 -24.082031 L 3.464844 -23.78125 L 3.464844 -19.085938 L 0.113281 -19.085938 L 0.113281 -16.773438 L 3.464844 -16.773438 L 3.464844 -5.628906 C 3.464844 -1.601562 5.144531 0.371094 8.761719 0.371094 C 9.058594 0.371094 10.027344 0.296875 11.628906 0.148438 L 11.628906 -2.160156 C 10.921875 -2.125 10.140625 -1.976562 9.320312 -1.976562 C 7.230469 -1.976562 6.375 -2.945312 6.375 -5.21875 L 6.375 -16.773438 L 10.585938 -16.773438 L 10.585938 -19.085938 L 6.375 -19.085938 Z M 6.375 -24.082031 "/></g></g></g><g fill="#8DBDD0" fill-opacity="1"><g transform="translate(66.013278, 61.113978)"><g><path d="M 8.761719 -25.980469 C 5.480469 -25.980469 3.726562 -23.671875 3.726562 -19.496094 L 3.726562 -18.9375 L 0.371094 -18.9375 L 0.371094 -16.625 L 3.726562 -16.625 L 3.726562 0 L 6.636719 0 L 6.636719 -16.625 L 11.035156 -16.625 L 11.035156 -18.9375 L 6.636719 -18.9375 L 6.636719 -19.792969 C 6.636719 -23 7.828125 -23.632812 9.839844 -23.632812 C 10.699219 -23.632812 11.292969 -23.484375 12.152344 -23.335938 L 12.152344 -25.683594 C 10.847656 -25.871094 9.503906 -25.980469 8.761719 -25.980469 Z M 8.761719 -25.980469 "/></g></g></g><g fill="#8DBDD0" fill-opacity="1"><g transform="translate(77.194556, 61.113978)"><g><path d="M 10.25 -19.421875 C 5.03125 -19.421875 1.566406 -15.394531 1.566406 -9.617188 C 1.566406 -3.914062 4.621094 0.371094 9.765625 0.371094 C 15.207031 0.371094 18.5625 -3.953125 18.5625 -9.578125 C 18.5625 -15.132812 15.394531 -19.421875 10.25 -19.421875 Z M 4.808594 -9.617188 C 4.808594 -14.910156 7.230469 -17.035156 9.988281 -17.035156 C 12.710938 -17.035156 15.320312 -15.171875 15.320312 -9.617188 C 15.320312 -4.25 12.898438 -2.050781 10.027344 -2.050781 C 7.121094 -2.050781 4.808594 -4.25 4.808594 -9.617188 Z M 4.808594 -9.617188 "/></g></g></g><g fill="#8DBDD0" fill-opacity="1"><g transform="translate(97.320853, 61.113978)"><g><path d="M 3.019531 -25.570312 L 3.019531 0 L 5.925781 0 L 5.925781 -25.570312 Z M 3.019531 -25.570312 "/></g></g></g><g fill="#8DBDD0" fill-opacity="1"><g transform="translate(106.26587, 61.113978)"><g><path d="M 2.871094 -25.570312 L 2.871094 -22.292969 L 6.074219 -22.292969 L 6.074219 -25.570312 Z M 3.019531 -18.9375 L 3.019531 0 L 5.925781 0 L 5.925781 -18.9375 Z M 3.019531 -18.9375 "/></g></g></g><g fill="#8DBDD0" fill-opacity="1"><g transform="translate(115.210888, 61.113978)"><g><path d="M 10.25 -19.421875 C 5.03125 -19.421875 1.566406 -15.394531 1.566406 -9.617188 C 1.566406 -3.914062 4.621094 0.371094 9.765625 0.371094 C 15.207031 0.371094 18.5625 -3.953125 18.5625 -9.578125 C 18.5625 -15.132812 15.394531 -19.421875 10.25 -19.421875 Z M 4.808594 -9.617188 C 4.808594 -14.910156 7.230469 -17.035156 9.988281 -17.035156 C 12.710938 -17.035156 15.320312 -15.171875 15.320312 -9.617188 C 15.320312 -4.25 12.898438 -2.050781 10.027344 -2.050781 C 7.121094 -2.050781 4.808594 -4.25 4.808594 -9.617188 Z M 4.808594 -9.617188 "/></g></g></g><g clip-path="url(#8DBDD014)"><g fill="#8DBDD0" fill-opacity="1"><g transform="translate(0.229975, 95.246881)"><g><path d="M 8.574219 -25.570312 L 0.296875 0 L 2.980469 0 L 5.257812 -7.457031 L 14.722656 -7.457031 L 17.296875 0 L 20.578125 0 L 12.265625 -25.570312 Z M 14.015625 -9.878906 L 6.152344 -9.878906 L 10.101562 -22.140625 Z M 14.015625 -9.878906 "/></g></g></g></g><g fill="#8DBDD0" fill-opacity="1"><g transform="translate(21.101684, 95.246881)"><g><path d="M 14.722656 -25.570312 L 14.722656 -16.363281 C 13.382812 -18.300781 11.667969 -19.421875 9.246094 -19.421875 C 4.324219 -19.421875 1.417969 -14.984375 1.417969 -9.46875 C 1.417969 -3.617188 4.621094 0.371094 8.984375 0.371094 C 11.78125 0.371094 13.679688 -0.933594 14.910156 -3.355469 L 14.984375 -3.355469 L 14.984375 0 L 17.632812 0 L 17.632812 -25.570312 Z M 4.546875 -9.804688 C 4.546875 -14.464844 6.746094 -17.109375 9.46875 -17.109375 C 12.226562 -17.109375 14.722656 -15.320312 14.722656 -11.40625 L 14.722656 -8.050781 C 14.722656 -4.398438 12.078125 -2.050781 9.429688 -2.050781 C 6.261719 -2.050781 4.546875 -5.03125 4.546875 -9.804688 Z M 4.546875 -9.804688 "/></g></g></g><g fill="#8DBDD0" fill-opacity="1"><g transform="translate(41.22798, 95.246881)"><g><path d="M 0.0390625 -18.9375 L 6.785156 0 L 9.839844 0 L 16.363281 -18.9375 L 13.753906 -18.9375 L 8.574219 -3.542969 L 3.28125 -18.9375 Z M 0.0390625 -18.9375 "/></g></g></g><g fill="#8DBDD0" fill-opacity="1"><g transform="translate(57.62718, 95.246881)"><g><path d="M 2.871094 -25.570312 L 2.871094 -22.292969 L 6.074219 -22.292969 L 6.074219 -25.570312 Z M 3.019531 -18.9375 L 3.019531 0 L 5.925781 0 L 5.925781 -18.9375 Z M 3.019531 -18.9375 "/></g></g></g><g fill="#8DBDD0" fill-opacity="1"><g transform="translate(66.572198, 95.246881)"><g><path d="M 9.46875 -19.421875 C 5.441406 -19.421875 2.386719 -17.371094 2.386719 -13.867188 C 2.386719 -10.882812 4.472656 -9.246094 7.941406 -8.609375 L 11.445312 -7.976562 C 13.644531 -7.566406 14.722656 -6.636719 14.722656 -5.179688 C 14.722656 -3.207031 12.933594 -2.050781 10.140625 -2.050781 C 7.269531 -2.050781 4.769531 -3.390625 4.4375 -5.589844 L 1.601562 -5.03125 C 2.460938 -1.601562 5.628906 0.371094 9.914062 0.371094 C 14.574219 0.371094 17.78125 -1.828125 17.78125 -5.480469 C 17.78125 -8.015625 16.179688 -10.027344 13.308594 -10.699219 C 11.855469 -11.035156 10.175781 -11.332031 8.3125 -11.628906 C 6.410156 -11.929688 5.40625 -12.824219 5.40625 -14.3125 C 5.40625 -16.066406 7.15625 -17.074219 9.429688 -17.074219 C 11.816406 -17.074219 13.644531 -15.992188 14.277344 -14.089844 L 16.960938 -14.648438 C 16.179688 -17.742188 13.382812 -19.421875 9.46875 -19.421875 Z M 9.46875 -19.421875 "/></g></g></g><g fill="#8DBDD0" fill-opacity="1"><g transform="translate(85.95307, 95.246881)"><g><path d="M 10.25 -19.421875 C 5.03125 -19.421875 1.566406 -15.394531 1.566406 -9.617188 C 1.566406 -3.914062 4.621094 0.371094 9.765625 0.371094 C 15.207031 0.371094 18.5625 -3.953125 18.5625 -9.578125 C 18.5625 -15.132812 15.394531 -19.421875 10.25 -19.421875 Z M 4.808594 -9.617188 C 4.808594 -14.910156 7.230469 -17.035156 9.988281 -17.035156 C 12.710938 -17.035156 15.320312 -15.171875 15.320312 -9.617188 C 15.320312 -4.25 12.898438 -2.050781 10.027344 -2.050781 C 7.121094 -2.050781 4.808594 -4.25 4.808594 -9.617188 Z M 4.808594 -9.617188 "/></g></g></g><g fill="#8DBDD0" fill-opacity="1"><g transform="translate(106.079366, 95.246881)"><g><path d="M 10.882812 -19.457031 C 8.386719 -19.457031 6.523438 -17.816406 5.367188 -14.5 L 5.292969 -14.5 L 5.292969 -18.9375 L 2.683594 -18.9375 L 2.683594 0 L 5.589844 0 L 5.589844 -9.804688 C 5.589844 -13.605469 7.941406 -16.589844 11.371094 -16.589844 L 12.003906 -16.589844 L 12.003906 -19.382812 C 11.59375 -19.421875 11.21875 -19.457031 10.882812 -19.457031 Z M 10.882812 -19.457031 "/></g></g></g><g fill="#8DBDD0" fill-opacity="1"><g transform="translate(118.565207, 95.246881)"><g><path d="M 9.46875 -19.421875 C 5.441406 -19.421875 2.386719 -17.371094 2.386719 -13.867188 C 2.386719 -10.882812 4.472656 -9.246094 7.941406 -8.609375 L 11.445312 -7.976562 C 13.644531 -7.566406 14.722656 -6.636719 14.722656 -5.179688 C 14.722656 -3.207031 12.933594 -2.050781 10.140625 -2.050781 C 7.269531 -2.050781 4.769531 -3.390625 4.4375 -5.589844 L 1.601562 -5.03125 C 2.460938 -1.601562 5.628906 0.371094 9.914062 0.371094 C 14.574219 0.371094 17.78125 -1.828125 17.78125 -5.480469 C 17.78125 -8.015625 16.179688 -10.027344 13.308594 -10.699219 C 11.855469 -11.035156 10.175781 -11.332031 8.3125 -11.628906 C 6.410156 -11.929688 5.40625 -12.824219 5.40625 -14.3125 C 5.40625 -16.066406 7.15625 -17.074219 9.429688 -17.074219 C 11.816406 -17.074219 13.644531 -15.992188 14.277344 -14.089844 L 16.960938 -14.648438 C 16.179688 -17.742188 13.382812 -19.421875 9.46875 -19.421875 Z M 9.46875 -19.421875 "/></g></g></g></g></g></svg>