<svg xmlns="http://www.w3.org/2000/svg" viewBox="0 0 120 120">
  <rect width="120" height="120" rx="16" fill="#2A1A10"/>
  <g transform="translate(8, 10) scale(0.95)">
    <g fill="#8DBDD0">
      <g transform="translate(1.179, 99.265)">
        <path d="M 104.422 -48.094 C 104.422 -42.594 103.598 -37.367 101.953 -32.422 C 100.305 -27.484 97.926 -22.953 94.813 -18.828 C 91.696 -14.703 87.895 -11.035 83.406 -7.828 C 78.914 -4.618 73.785 -2.008 68.016 0 L 68.016 13.188 L 44.375 13.188 L 44.375 -40.391 L 67.047 -40.391 L 67.047 -33.531 C 69.066 -34.988 70.719 -36.953 72 -39.422 C 73.281 -41.899 73.922 -44.469 73.922 -47.125 C 73.922 -50.063 73.415 -52.766 72.406 -55.234 C 71.406 -57.711 70.055 -59.844 68.359 -61.625 C 66.66 -63.415 64.645 -64.813 62.313 -65.813 C 59.977 -66.821 57.438 -67.328 54.688 -67.328 C 51.938 -67.328 49.395 -66.821 47.063 -65.813 C 44.727 -64.813 42.711 -63.438 41.016 -61.688 C 39.316 -59.946 37.961 -57.91 36.953 -55.578 C 35.953 -53.243 35.453 -50.75 35.453 -48.094 C 35.453 -45.613 35.883 -43.254 36.75 -41.016 C 37.625 -38.773 38.703 -37.008 39.984 -35.719 L 39.984 -0.281 C 34.766 -1.832 30 -4.234 25.688 -7.484 C 21.383 -10.734 17.696 -14.508 14.625 -18.813 C 11.563 -23.125 9.18 -27.797 7.484 -32.828 C 5.797 -37.867 4.953 -42.957 4.953 -48.094 C 4.953 -54.781 6.254 -61.145 8.859 -67.188 C 11.473 -73.238 15.023 -78.531 19.516 -83.063 C 24.004 -87.594 29.27 -91.188 35.313 -93.844 C 41.352 -96.5 47.813 -97.828 54.688 -97.828 C 61.563 -97.828 68.02 -96.5 74.063 -93.844 C 80.102 -91.188 85.367 -87.594 89.859 -83.063 C 94.348 -78.531 97.895 -73.238 100.5 -67.188 C 103.113 -61.145 104.422 -54.781 104.422 -48.094 Z"/>
      </g>
    </g>
  </g>
</svg>
